PathFileType	4	(X/Y/Z)	C:\Users\°ÂÌØÂü\Desktop\20210112\bx_y_0_901-Unnamed.trc
DataRate	CameraRate	NumFrames	NumMarkers	Units	OrigDataRate	OrigDataStartFrame	OrigNumFrames
50.00	50.00	       4	0	mm	50.00	172	       457
Frame#	Time	
		

172	3.420				-368.10416	267.57861	1117.95740				-920.66534	75.89449	1102.66589				-834.59241	272.86102	861.23364	-759.00140	-21.11295	792.91058				-860.02173	273.99805	726.60742	-852.03534	243.06984	618.20117	-852.29132	-69.55492	698.13403	-836.48755	239.01137	562.16376	-761.89905	9.14114	522.74640	-855.47681	251.52202	483.38455	-769.45978	201.88139	533.14490	-793.64789	138.87395	563.18164	-664.40363	-69.62953	159.83681	-720.70648	156.46205	220.16927	-777.13531	225.34360	200.49232	-882.47418	295.97089	144.53862	-677.89154	52.84743	162.48407	-605.37292	20.06323	167.09262	-677.36078	175.88217	161.17538	-597.00226	223.56596	173.35513	-667.84216	300.47446	158.36627	-630.05914	307.99243	162.23289	-562.67902	259.01083	166.49538	-528.12091	304.06647	146.21158	-95.62347	89.97258	1178.65979	-518.04736	-72.49951	142.92368	-799.24475	174.76762	181.25058	-772.87872	-11.75717	201.02635	-798.03546	50.40743	172.94380				-845.69568	-47.11625	468.90948	-561.43481	-35.71160	162.92142	-875.87164	-78.64655	141.31004				-728.96082	71.06808	220.90361	-825.24017	-41.25252	601.72333	-822.78101	-36.37297	555.43793	-622.44843	-80.44128	156.32811	-840.83936	-88.34229	842.39862	-798.42651	68.67127	564.17303	
173	3.440	-764.62897	207.63911	796.76874	-367.34897	267.68610	1111.94470	-374.61517	-87.72720	1063.08032	-920.20251	75.85925	1102.71472				-835.59766	273.09244	861.06158	-759.80096	-20.73427	792.35461				-860.69904	273.88037	726.18707	-852.85535	243.01154	617.63855	-853.03320	-69.60684	698.20923	-836.97327	239.15431	561.95490	-762.28143	9.22894	522.89258	-855.74677	251.53313	483.31302	-769.93085	201.90701	533.18463	-794.04596	138.83220	563.17108	-664.45343	-69.65157	159.86472	-720.95233	156.39766	220.33614	-777.12488	225.20287	200.37260	-882.62701	296.24408	144.67265	-677.75061	52.93269	162.62997	-605.35040	20.03651	167.10295	-677.36078	175.88217	161.17538	-597.13416	223.54922	173.42613	-667.83496	300.36316	158.59161	-630.05914	307.99243	162.23289	-562.63110	258.95285	166.37260	-528.11841	303.99933	146.16861	-94.89212	90.19310	1170.39221	-518.03735	-72.56598	142.70705	-799.16840	174.63908	181.10741	-772.87872	-11.75717	201.02635	-798.14124	50.52935	172.91052				-846.32837	-46.75496	468.48862	-561.58710	-35.88369	163.00008	-875.99139	-78.70409	141.37393				-728.92798	70.94188	221.03410	-825.74316	-41.06084	601.45532	-823.03906	-36.41502	555.49152	-622.44843	-80.44128	156.32811	-841.36841	-87.86846	841.95209	-798.79645	68.70033	564.22699	
174	3.460	-765.32452	207.77469	796.28479	-367.77292	267.21960	1104.93176	-374.72037	-87.38341	1056.96753	-920.07703	75.62369	1103.96179				-836.07629	273.37579	860.78644	-760.70416	-20.34414	791.82544				-861.30981	273.79974	725.68164	-853.23804	243.50444	617.75323	-853.61993	-69.61388	698.22058	-837.15314	239.14449	561.87231	-762.67065	9.38148	522.87073	-855.96472	251.38200	483.08511	-770.13995	201.45819	533.21033	-794.62909	138.81314	563.39832	-664.40363	-69.62953	159.83681	-721.07983	156.25543	220.41690	-777.10846	225.07312	200.26350	-882.66919	296.18298	144.57330	-678.01776	53.02142	162.48117	-605.22717	20.06209	167.12125	-677.28827	175.76315	161.20804	-597.16443	223.39899	173.28242	-667.76923	300.27985	158.67296	-630.05914	307.99243	162.23289	-562.51404	258.72916	166.35243	-528.13055	303.94391	146.17865	-94.02333	90.62872	1162.27588	-518.04395	-72.38728	142.47258	-799.17255	174.72598	180.99532	-773.22345	-11.92473	200.83740	-798.23206	50.45616	172.99982				-846.63770	-46.49210	468.26672	-561.49860	-35.85285	162.90141	-875.99139	-78.70409	141.37393				-729.07056	70.81528	220.65858	-826.15259	-41.21620	601.83319	-823.57208	-36.64310	555.41797	-622.43945	-80.34298	156.43024	-842.06812	-88.12766	841.79547	-800.34717	67.69116	562.86584	
175	3.480	-766.15271	207.71738	796.31647	-367.21478	267.40314	1098.77087	-374.31360	-87.08420	1050.55762	-919.50854	75.70451	1103.96045				-836.73169	273.16663	860.60388	-761.36389	-19.28617	790.96698				-862.04449	274.21820	725.69604	-853.33722	243.67049	617.52472	-854.36328	-69.15697	697.85883	-837.25586	238.97714	561.71765	-762.76117	9.35780	522.93182	-856.14105	251.37735	482.93875	-770.51080	201.54668	533.18170	-795.10895	138.62692	563.17407	-664.40363	-69.62953	159.83681	-721.07983	156.25543	220.41690	-777.04852	225.16255	200.40154	-882.60809	296.10962	144.48091	-677.87836	53.18315	162.36009	-605.36102	19.98215	167.05276	-677.28827	175.76315	161.20804	-597.01605	223.44963	173.26283	-667.84106	300.26581	158.53784	-629.91815	307.92493	162.22527	-562.57031	258.65063	166.38028	-528.13220	304.07156	146.24336	-93.40446	90.73991	1154.30273	-517.90283	-72.71769	142.91913	-799.30182	174.78413	180.95175	-772.95697	-11.88081	201.10881	-797.91895	50.39657	172.51105				-846.95563	-46.24145	468.18811	-561.43481	-35.71160	162.92142	-876.00970	-78.74700	141.30463				-728.82227	71.03734	221.12250	-826.55914	-41.53032	601.84766	-823.99323	-36.17971	555.19122	-622.37415	-80.27391	156.04022	-843.01569	-88.51684	841.92743	-800.74457	67.78400	562.99640	
